
<svg width="70" height="40"  xmlns="http://www.w3.org/2000/svg" viewBox="0 0 64 64" style="enable-background:new 0 0 64 64" xml:space="preserve"><path style="fill:#abd8c7" d="M45.75 23.671 42.3 37.802H21.7l-3.45-14.131z"/><path style="fill:#9ac1b1" d="M44.269 23.671 40.82 37.802h1.85l3.45-14.131z"/><path style="fill:#abd8c7" d="M34.602 42.213a4.147 4.147 0 0 0-.17.807l-1.17 10.722h-2.524l-1.17-10.722a4.46 4.46 0 0 0-.167-.807h5.201zM21.096 53.742H10.23a3.719 3.719 0 0 1-3.716-3.716v-9.401a.728.728 0 0 0-.614-.718 5.256 5.256 0 0 1-4.445-5.211 5.24 5.24 0 0 1 1.673-3.857 5.237 5.237 0 0 1 3.967-1.418c2.768.178 4.934 2.583 4.934 5.478v6.584c0 .403.326.729.729.729h6.806a4.139 4.139 0 0 0-.218 2.335l1.75 9.195zM62.545 34.696c0 2.606-1.869 4.8-4.445 5.211a.728.728 0 0 0-.614.718v9.401a3.719 3.719 0 0 1-3.716 3.716H42.904l1.754-9.194a4.209 4.209 0 0 0-.218-2.335h6.806c.4 0 .725-.326.725-.729V34.9c0-2.894 2.169-5.3 4.934-5.478a5.24 5.24 0 0 1 3.968 1.418 5.238 5.238 0 0 1 1.672 3.856z"/><path style="fill:#47705d" d="M61.868 29.777a6.686 6.686 0 0 0-5.056-1.81c-.007 0-.015.004-.022.004v-6.706c0-2.85-2.321-5.17-5.17-5.17H37.733c.078-.141.141-.27.226-.415.326.007.648-.089.918-.307 1.055-.855 1.103-3.338 1.103-3.361 0-.637 0-1.669-.677-2.121l-.033-2.539c0-.107.015-2.661-1.854-4.556C36.135 1.497 34.314.838 32.005.838H32c-2.31 0-4.13.659-5.411 1.958-1.869 1.895-1.854 4.449-1.854 4.538l-.033 2.557c-.677.455-.677 1.484-.677 2.121 0 .381.366 3.094 1.688 3.683.03.067.056.144.074.192.026.078.052.148.078.207h-13.48a5.178 5.178 0 0 0-5.174 5.17v6.706c-.007 0-.011-.004-.022-.004a6.676 6.676 0 0 0-5.056 1.81A6.764 6.764 0 0 0 0 34.696a6.698 6.698 0 0 0 5.059 6.521v8.809c0 2.85 2.317 5.17 5.17 5.17h11.144l1.406 7.373c.067.348.37.592.714.592.019 0 .041-.004.059-.004.007 0 .011.004.019.004a.559.559 0 0 0 .137-.015c.015-.004.026-.011.041-.015l7.191-1.077a.727.727 0 0 0 .614-.788l.081-.011a4.582 4.582 0 0 0-.17-.811l-.57-5.248h2.206l-.659 6.059a.73.73 0 0 0 .614.799l7.339 1.099a.73.73 0 0 0 .732-.345.776.776 0 0 0 .089-.241v-.004l1.406-7.369H53.77a5.178 5.178 0 0 0 5.174-5.17v-8.809A6.693 6.693 0 0 0 64 34.696a6.763 6.763 0 0 0-2.132-4.919zM51.62 17.549a3.72 3.72 0 0 1 3.712 3.716v6.98c-2.791.855-4.815 3.527-4.815 6.655v5.855h-5.785v-2.224a.729.729 0 0 0-.729-.729h-.204l.352-1.451h1.98a1.718 1.718 0 0 0 1.669-2.166c-.089-.337-.226-1.954-.348-3.383-.289-3.39-.422-4.589-.625-4.985l-.03-.067c-.011-.026-.026-.044-.041-.067l.629-2.569a.729.729 0 0 0-.707-.9h-3.705c-.374-.096-.825-.2-1.388-.326-1.647-.37-4.412-.992-5.122-1.751-.167-.178-.093-1.092.548-2.591H51.62zM42.3 37.802H21.7l-3.45-14.131h27.5L42.3 37.802zm.977 1.454v1.303a4.226 4.226 0 0 0-2.158-.999l-1.847-.274c-.085-.015-.174-.019-.263-.03h4.268zm-5.018 0a4.224 4.224 0 0 0-2.861 1.499h-6.792a4.474 4.474 0 0 0-.663-.633 4.224 4.224 0 0 0-2.202-.866h12.518zm-13.269 0c-.089.011-.174.015-.263.03l-1.847.274a4.237 4.237 0 0 0-2.158.999v-1.303h4.268zm-5.496-4.36h-1.629a.27.27 0 0 1-.259-.341c.107-.415.204-1.658.352-3.653.037-.526.085-1.147.133-1.747l1.403 5.741zm7.247-12.68c.729-.296 1.351-.651 1.751-1.088.318-.352.444-.792.426-1.299.844.47 1.921.888 3.083.888 1.129 0 2.147-.459 2.946-.992-.004.559.122 1.055.455 1.41.403.429 1.066.781 1.851 1.081H26.741zm19.123 7.128.137 1.584c.167 1.965.278 3.194.392 3.631a.27.27 0 0 1-.044.233.277.277 0 0 1-.218.104h-1.625l1.358-5.552zM25.479 12.012c0-.607.048-.844.078-.933.359-.2.592-.596.596-1.036l.037-2.709c0-.019.004-2.073 1.447-3.527.999-1.003 2.465-1.514 4.367-1.514 1.899 0 3.364.507 4.364 1.514 1.443 1.451 1.447 3.509 1.443 3.546l.037 2.691c.004.44.237.836.596 1.036.03.089.081.322.081.933 0 .729-.27 1.943-.533 2.202a1.196 1.196 0 0 0-1.21.596 18.674 18.674 0 0 0-1.247 2.483c-.352.396-1.855 1.969-3.535 1.969-1.721 0-3.316-1.292-3.727-1.651a27.964 27.964 0 0 0-1.062-2.058c-.015-.037-.033-.089-.056-.152-.152-.426-.341-.959-.851-1.036-.355-.189-.825-1.754-.825-2.354zM8.668 21.265a3.72 3.72 0 0 1 3.716-3.716h14.238c.955 1.91.922 2.454.788 2.602-.74.814-3.301 1.373-5 1.747-.563.122-1.018.222-1.388.318h-3.701a.729.729 0 0 0-.707.9l.629 2.576c-.037.074-.078.141-.115.218l-.104.222c-.178.378-.281 1.443-.518 4.663-.104 1.377-.229 3.087-.311 3.394a1.725 1.725 0 0 0 .307 1.492c.329.426.825.67 1.362.67h1.984l.355 1.451h-.207a.729.729 0 0 0-.729.729v2.224h-5.785V34.9c0-3.127-2.025-5.8-4.815-6.655v-6.98zm1.562 32.477a3.719 3.719 0 0 1-3.716-3.716v-9.401a.728.728 0 0 0-.614-.718 5.256 5.256 0 0 1-4.445-5.211 5.24 5.24 0 0 1 1.673-3.857 5.237 5.237 0 0 1 3.967-1.418c2.768.178 4.934 2.583 4.934 5.478v6.584c0 .403.326.729.729.729h6.806a4.139 4.139 0 0 0-.218 2.335l1.751 9.194H10.23zm13.387 5.419c-.004 0-.004.004-.004.004l-2.839-14.89a2.764 2.764 0 0 1 .463-2.132 2.768 2.768 0 0 1 1.862-1.144l1.843-.274a2.765 2.765 0 0 1 2.113.548 2.765 2.765 0 0 1 1.066 1.902l1.628 14.93c-.903-.625-1.991-.888-3.139-.74a4.368 4.368 0 0 0-2.993 1.796zm.633 2.424a2.88 2.88 0 0 1 .548-1.573c.481-.666 1.192-1.092 2.058-1.21a2.943 2.943 0 0 1 2.217.603c.44.348.759.803.947 1.318l-5.77.862zm6.488-7.843-1.17-10.722a4.46 4.46 0 0 0-.167-.807h5.2a4.147 4.147 0 0 0-.17.807l-1.17 10.722h-2.523zm3.32 6.992c.185-.518.503-.977.947-1.329.633-.496 1.421-.707 2.272-.596a2.94 2.94 0 0 1 2.554 2.787l-5.773-.862zm6.344-1.651c-.714-.947-1.751-1.558-2.983-1.721a4.375 4.375 0 0 0-3.172.803l1.632-14.99a2.76 2.76 0 0 1 1.066-1.902 2.766 2.766 0 0 1 2.113-.548l1.843.274a2.764 2.764 0 0 1 1.862 1.144c.44.625.607 1.381.463 2.132l-2.824 14.808zM58.1 39.907a.728.728 0 0 0-.614.718v9.401a3.719 3.719 0 0 1-3.716 3.716H42.904l1.754-9.194a4.209 4.209 0 0 0-.218-2.335h6.806c.4 0 .725-.326.725-.729V34.9c0-2.894 2.169-5.3 4.934-5.478a5.24 5.24 0 0 1 3.968 1.418 5.24 5.24 0 0 1 1.673 3.857 5.256 5.256 0 0 1-4.446 5.21z"/></svg>